<svg width="34" height="34" viewBox="0 0 34 34" fill="none" xmlns="http://www.w3.org/2000/svg">
<path d="M10 33.3333C9.08333 33.3333 8.29889 33.0072 7.64667 32.355C6.99333 31.7017 6.66667 30.9167 6.66667 30C6.66667 29.0833 6.99333 28.2983 7.64667 27.645C8.29889 26.9928 9.08333 26.6667 10 26.6667C10.9167 26.6667 11.7011 26.9928 12.3533 27.645C13.0067 28.2983 13.3333 29.0833 13.3333 30C13.3333 30.9167 13.0067 31.7017 12.3533 32.355C11.7011 33.0072 10.9167 33.3333 10 33.3333ZM26.6667 33.3333C25.75 33.3333 24.9656 33.0072 24.3133 32.355C23.66 31.7017 23.3333 30.9167 23.3333 30C23.3333 29.0833 23.66 28.2983 24.3133 27.645C24.9656 26.9928 25.75 26.6667 26.6667 26.6667C27.5833 26.6667 28.3683 26.9928 29.0217 27.645C29.6739 28.2983 30 29.0833 30 30C30 30.9167 29.6739 31.7017 29.0217 32.355C28.3683 33.0072 27.5833 33.3333 26.6667 33.3333ZM17.1667 12.1667C16.8611 11.8611 16.7083 11.4722 16.7083 11C16.7083 10.5278 16.8611 10.1389 17.1667 9.83333L18.625 8.33333H13.3333C12.8611 8.33333 12.4656 8.17389 12.1467 7.855C11.8267 7.535 11.6667 7.13889 11.6667 6.66667C11.6667 6.19444 11.8267 5.79833 12.1467 5.47833C12.4656 5.15944 12.8611 5 13.3333 5H18.625L17.125 3.5C16.7917 3.16667 16.6322 2.77778 16.6467 2.33333C16.66 1.88889 16.8333 1.5 17.1667 1.16667C17.5 0.861111 17.8889 0.701111 18.3333 0.686667C18.7778 0.673333 19.1667 0.833333 19.5 1.16667L23.8333 5.5C24 5.66667 24.1183 5.84722 24.1883 6.04167C24.2572 6.23611 24.2917 6.44444 24.2917 6.66667C24.2917 6.88889 24.2572 7.09722 24.1883 7.29167C24.1183 7.48611 24 7.66667 23.8333 7.83333L19.5 12.1667C19.1944 12.4722 18.8128 12.6317 18.355 12.645C17.8961 12.6594 17.5 12.5 17.1667 12.1667ZM10 25C8.72222 25 7.75722 24.4511 7.105 23.3533C6.45167 22.2567 6.44444 21.1667 7.08333 20.0833L9.33333 16L3.33333 3.33333H1.66667C1.19444 3.33333 0.798889 3.17333 0.48 2.85333C0.16 2.53444 0 2.13889 0 1.66667C0 1.19444 0.16 0.798333 0.48 0.478333C0.798889 0.159444 1.19444 0 1.66667 0H4.41667C4.72222 0 5.01389 0.0833335 5.29167 0.25C5.56944 0.416667 5.77778 0.652778 5.91667 0.958333L12.5417 15H24.25L30.25 4.16667C30.3889 3.91667 30.5833 3.715 30.8333 3.56167C31.0833 3.40944 31.3611 3.33333 31.6667 3.33333C32.3056 3.33333 32.785 3.60389 33.105 4.145C33.4239 4.68722 33.4306 5.23611 33.125 5.79167L27.1667 16.5833C26.8611 17.1389 26.4511 17.5694 25.9367 17.875C25.4233 18.1806 24.8611 18.3333 24.25 18.3333H11.8333L10 21.6667H28.3333C28.8056 21.6667 29.2011 21.8261 29.52 22.145C29.84 22.465 30 22.8611 30 23.3333C30 23.8056 29.84 24.2011 29.52 24.52C29.2011 24.84 28.8056 25 28.3333 25H10Z" fill="#F38F03"/>
</svg>
